# xmcd CD database file
#
# Track frame offsets:
#	150
#	17475
#	39750
#
# Disc length: 757 seconds
#
# Revision: 0
# Processed by: cddbd v1.5.1PL0 Copyright (c) Steve Scherf et al.
# Submitted via: CDex 1.51
#
DISCID=1202f303
DTITLE=ANGELA - memories
DYEAR=1999
DGENRE=JPop
TTITLE0=memories
TTITLE1=笑顔をみせて
TTITLE2=memories(オリジナル・カラオケ)
EXTD=YEAR: 1999/05/26
EXTT0=
EXTT1=
EXTT2=
PLAYORDER=
